<svg xmlns="http://www.w3.org/2000/svg" xmlns:xlink="http://www.w3.org/1999/xlink" id="Layer_1" x="0px" y="0px" width="394px" height="325px" viewBox="0 0 394 325" style="enable-background:new 0 0 394 325;" xml:space="preserve">
<style type="text/css">
	.st0{opacity:0.5;fill:#E5EEFD;}
	.st1{fill:#FFFFFF;stroke:#A89CFC;stroke-width:2;stroke-linecap:round;stroke-linejoin:round;stroke-miterlimit:10;}
	.st2{fill:#FFFFFF;}
	.st3{fill:#A89CFC;}
	.st4{fill:#B8D4FF;}
	.st5{fill:none;stroke:#A89CFC;stroke-width:2;stroke-linecap:round;stroke-linejoin:round;stroke-miterlimit:10;}
	.st6{fill:#E2498A;}
	.st7{fill:none;stroke:#E2498A;stroke-width:2.3579;stroke-linecap:round;stroke-linejoin:round;stroke-miterlimit:10;}
	.st8{fill:none;stroke:#A89CFC;stroke-width:2.488;stroke-linecap:round;stroke-linejoin:round;stroke-miterlimit:10;}
	.st9{opacity:0.3;fill:#A89CFC;}
	.st10{opacity:0.2;fill:#A89CFC;}
	.st11{fill:none;stroke:#62A7F9;stroke-width:2.1718;stroke-linecap:round;stroke-linejoin:round;stroke-miterlimit:10;}
	.st12{fill:#96C0FF;}
	.st13{fill:#62A7F9;}
</style>
<path class="st0" d="M336.7,102.8c-2.7-6.6-9.3-10.7-16.4-10.3c-9.6,0.5-19.3-0.2-29.2-2.2c-40.6-8.4-71.9-36.8-85.8-72.7  c-2.6-6.6-9.1-10.9-16.2-10.8C114,8.5,47.7,64.9,38.4,144.6C30,217.2,74.8,287.3,144.3,309.9c89.8,29.2,182.5-26.5,201-116.4  C351.8,161.9,348.2,130.6,336.7,102.8z"></path>
<g>
	<path class="st1" d="M115.1,134.2l-63.8,0.1c-12.3,0-22.2-9.9-22.2-22.2v0c0-12.3,9.9-22.2,22.2-22.2l63.8-0.1   c12.3,0,22.2,9.9,22.2,22.2v0C137.3,124.2,127.4,134.2,115.1,134.2z"></path>
	<g>
		<g>
			<line class="st2" x1="81.1" y1="106.3" x2="105.8" y2="105.7"></line>
			<path class="st3" d="M81.1,105.8c0,0,0.4-0.1,1.1-0.2c0.7-0.1,1.6-0.2,2.8-0.3c1.2-0.1,2.5-0.1,4-0.1c1.4,0,3-0.1,4.5-0.1     c1.5,0,3.1,0,4.5,0c1.4,0,2.8,0,4,0c2.3,0,3.9,0.1,3.9,0.1c0.3,0,0.6,0.3,0.6,0.6c0,0.3-0.3,0.6-0.6,0.6c0,0-1.5,0.1-3.9,0.3     c-1.2,0.1-2.5,0.1-4,0.2c-1.4,0.1-3,0.2-4.5,0.2c-1.5,0-3.1,0.1-4.5,0.1c-1.4,0-2.8,0.1-4,0.1c-1.2,0-2.1-0.1-2.8-0.2     c-0.7-0.1-1.1-0.2-1.1-0.2c-0.3-0.1-0.5-0.4-0.4-0.7C80.8,106,80.9,105.9,81.1,105.8z"></path>
		</g>
		<g>
			<line class="st2" x1="81.3" y1="115.7" x2="113.2" y2="114.9"></line>
			<path class="st3" d="M81.3,115c0,0,2-0.3,5-0.5c1.5-0.1,3.2-0.1,5.1-0.1c1.9,0,3.9-0.1,5.9-0.1c2-0.1,4-0.1,5.9-0.1     c1.9,0,3.6,0,5.1,0c3,0,5,0,5,0c0.4,0,0.7,0.3,0.7,0.7c0,0.4-0.3,0.7-0.7,0.7c0,0-2,0.1-5,0.2c-1.5,0.1-3.2,0.1-5.1,0.2     c-1.9,0.1-3.9,0.2-5.9,0.2c-2,0.1-4,0.1-5.9,0.2c-1.9,0-3.6,0.1-5.1,0.1c-3,0-5-0.2-5-0.2c-0.3,0-0.6-0.4-0.6-0.7     C80.8,115.3,81.1,115.1,81.3,115z"></path>
		</g>
		<g>
			<line class="st2" x1="110.9" y1="105.6" x2="122.3" y2="105.4"></line>
			<path class="st3" d="M110.9,104.9c0,0,0.2,0,0.5-0.1c0.3,0,0.8-0.1,1.3-0.1c1.1-0.1,2.5-0.1,3.9-0.1c1.4,0,2.9,0,3.9,0     c1.1,0,1.8,0,1.8,0c0.5,0,0.9,0.4,0.9,0.9c0,0.5-0.4,0.9-0.8,0.9c0,0-0.7,0-1.8,0.1c-1.1,0.1-2.5,0.1-3.9,0.1     c-1.4,0-2.9,0.1-3.9,0.1c-0.5,0-1-0.1-1.3-0.1c-0.3,0-0.5-0.1-0.5-0.1c-0.4-0.1-0.7-0.5-0.6-0.9     C110.3,105.2,110.6,104.9,110.9,104.9z"></path>
		</g>
		<g>
			<path class="st4" d="M63.4,111.8c0,2.7-0.9,5.2-2.4,7.1c-2.1-2.7-5.4-4.5-9.2-4.5c-3.7,0-7,1.8-9.2,4.5c-1.5-2-2.4-4.4-2.4-7.1     c0-6.4,5.2-11.6,11.6-11.6C58.2,100.2,63.4,105.4,63.4,111.8z"></path>
			<path class="st5" d="M66.3,112c0,3.7-1.4,7-3.6,9.6c-2.7,3-6.5,4.9-10.9,4.9c-4.3,0-8.2-1.9-10.9-4.9c-2.3-2.6-3.6-5.9-3.6-9.6     c0-8,6.5-14.5,14.5-14.5C59.8,97.6,66.3,104.1,66.3,112z"></path>
			<path class="st1" d="M55.8,107.2c0.4,2.7-1.9,5-4.6,4.6c-1.7-0.3-3.1-1.6-3.3-3.3c-0.4-2.7,1.9-5,4.6-4.6     C54.2,104.1,55.5,105.5,55.8,107.2z"></path>
			<g>
				<path class="st3" d="M42.5,118.6c0,0,0.1-0.3,0.4-0.8c0.1-0.2,0.4-0.6,0.7-0.9c0.3-0.3,0.6-0.7,1-1c0.8-0.7,1.9-1.3,3.1-1.8      c1.2-0.5,2.7-0.8,4.1-0.8c0.4,0,0.6,0,1,0.1c0.4,0,0.7,0.1,1.1,0.1c0.7,0.1,1.3,0.3,2,0.6c1.2,0.5,2.3,1.1,3.1,1.8      c0.8,0.7,1.3,1.4,1.6,1.9c0.3,0.5,0.4,0.8,0.4,0.8l0,0c0.1,0.2,0,0.5-0.2,0.6c-0.2,0.1-0.3,0-0.5-0.1c0,0-0.2-0.2-0.7-0.6      c-0.4-0.3-1-0.8-1.8-1.3c-0.8-0.5-1.7-1-2.7-1.3c-0.5-0.2-1.1-0.3-1.6-0.4c-0.3,0-0.6-0.1-0.8-0.1c-0.2,0-0.7,0-0.9,0      c-0.6,0-1.2,0.1-1.7,0.2c-0.6,0.1-1.1,0.3-1.6,0.4c-1,0.3-1.9,0.9-2.7,1.4c-0.4,0.3-0.7,0.5-1,0.7c-0.3,0.2-0.5,0.4-0.7,0.6      c-0.4,0.4-0.7,0.6-0.7,0.6c-0.3,0.2-0.6,0.1-0.8-0.1C42.4,119,42.4,118.8,42.5,118.6z"></path>
			</g>
		</g>
	</g>
</g>
<g>
	<path class="st2" d="M154.7,234.8l-69.3,23.9c-1.3,0.4-2.6-0.2-3.1-1.5l-18-52.2c-0.4-1.3,0.2-2.6,1.5-3.1l69.3-23.9   c1.3-0.4,2.6,0.2,3.1,1.5l18,52.2C156.6,233,156,234.4,154.7,234.8z"></path>
	
		<rect x="64.1" y="190.2" transform="matrix(0.9453 -0.3261 0.3261 0.9453 -58.2146 44.102)" class="st6" width="76.6" height="11"></rect>
	<path class="st7" d="M154.7,234.8l-69.3,23.9c-1.3,0.4-2.6-0.2-3.1-1.5l-18-52.2c-0.4-1.3,0.2-2.6,1.5-3.1l69.3-23.9   c1.3-0.4,2.6,0.2,3.1,1.5l18,52.2C156.6,233,156,234.4,154.7,234.8z"></path>
	<path class="st2" d="M71.6,205.4c0.9,0.8,0.2,2.1-0.9,1.8c-0.1,0-0.3-0.1-0.4-0.2c-0.9-0.8-0.2-2.1,0.9-1.8   C71.4,205.3,71.5,205.3,71.6,205.4z"></path>
	<path class="st2" d="M74.9,204.3c0.9,0.8,0.2,2.1-0.9,1.8c-0.1,0-0.3-0.1-0.4-0.2c-0.9-0.8-0.2-2.1,0.9-1.8   C74.7,204.1,74.8,204.2,74.9,204.3z"></path>
	<path class="st2" d="M78.2,203.1c0.9,0.8,0.2,2.1-0.9,1.8c-0.1,0-0.3-0.1-0.4-0.2c-0.9-0.8-0.2-2.1,0.9-1.8   C78,203,78.1,203,78.2,203.1z"></path>
	<polyline class="st8" points="106.5,237.4 90.6,229.6 98.3,213.8  "></polyline>
	<polyline class="st8" points="124.3,231.2 132,215.4 116.2,207.6  "></polyline>
	<line class="st8" x1="111.9" y1="214" x2="110.9" y2="230.1"></line>
</g>
<g>
	<path class="st2" d="M292.7,248.8l-49.2-13.3c-3.3-0.9-5.3-4.3-4.4-7.7l13.7-50.4c0.9-3.3,4.3-5.3,7.7-4.4l49.2,13.3   c3.3,0.9,5.3,4.3,4.4,7.7l-13.7,50.4C299.5,247.8,296,249.7,292.7,248.8z"></path>
	<path class="st9" d="M292.7,248.8l-49.2-13.3c-3.3-0.9-5.3-4.3-4.4-7.7l12.4-45.9c0.9-3.3,4.3-5.3,7.7-4.4l49.2,13.3   c3.3,0.9,5.3,4.3,4.4,7.7l-12.4,45.9C299.5,247.8,296,249.7,292.7,248.8z"></path>
	<line class="st10" x1="246.5" y1="193.5" x2="247.1" y2="190.9"></line>
	<g>
		<path class="st3" d="M248,185c0,0,0-0.9,0.3-2.5c0.1-0.4,0.2-0.8,0.3-1.3c0-0.1,0.1-0.2,0.1-0.4c0-0.1,0.1-0.3,0.1-0.4    c0.1-0.3,0.1-0.5,0.3-0.8c0.5-1.3,1.3-2.6,2.5-3.8c1.2-1.2,2.8-2.3,4.7-2.9c1.9-0.6,4.3-0.7,6.5-0.1c4.1,1.1,8.7,2.3,13.7,3.7    s10.4,2.8,16.2,4.4c2.9,0.8,5.8,1.6,8.8,2.4c1.5,0.4,3.1,0.8,4.6,1.3c0.4,0.1,0.7,0.2,1.2,0.4c0.4,0.2,0.9,0.4,1.3,0.6    c0.8,0.4,1.5,1,2.2,1.6c2.7,2.5,4.2,6.3,3.6,10.1c0,0.5-0.2,0.9-0.3,1.4l-0.3,1.2c-0.2,0.8-0.4,1.6-0.7,2.4    c-0.4,1.6-0.9,3.3-1.3,4.9c-1.8,6.6-3.6,13.3-5.4,20c-0.9,3.3-1.8,6.7-2.7,10l-0.7,2.5l-0.3,1.2l0,0.2l-0.1,0.2l-0.1,0.3l-0.2,0.6    c-0.4,1-0.8,1.8-1.4,2.6c-0.6,0.8-1.2,1.5-2,2.1c-1.5,1.2-3.2,2.1-5.1,2.5c-1.9,0.4-3.9,0.3-5.6-0.2c-3.2-0.9-6.4-1.7-9.5-2.6    c-6.3-1.7-12.3-3.4-18.1-4.9c-2.9-0.8-5.7-1.5-8.4-2.3c-1.4-0.4-2.7-0.7-4-1.1c-0.7-0.2-1.3-0.4-1.9-0.5l-1-0.3l-0.3-0.1l-0.2-0.1    l-0.5-0.2c-2.8-1-5-3-6.3-5.3c-1.3-2.3-1.6-5-1.3-7.3c0.2-1.2,0.5-2.2,0.8-3.1c0.3-1,0.5-1.9,0.7-2.7c0.5-1.8,0.9-3.4,1.3-4.8    c1.6-5.9,3-9,3-9c0.2-0.3,0.6-0.5,0.9-0.3c0.3,0.1,0.4,0.4,0.4,0.7c0,0-0.3,3.5-1.9,9.3c-0.4,1.5-0.8,3.1-1.3,4.8    c-0.2,0.9-0.5,1.8-0.7,2.8c-0.3,1-0.6,2-0.7,2.8c-0.3,1.8,0,3.9,1,5.7c1,1.8,2.7,3.4,4.8,4.1l0.5,0.2l0.2,0.1c0.1,0,0,0,0,0l0.1,0    l0.1,0l1,0.3c0.6,0.2,1.3,0.3,1.9,0.5c1.3,0.4,2.6,0.7,4,1.1c2.7,0.7,5.5,1.5,8.4,2.3c5.7,1.5,11.8,3.2,18.1,4.9    c3.1,0.8,6.3,1.7,9.5,2.6c2.9,0.9,6,0.2,8.3-1.7c1.1-0.9,2-2.3,2.5-3.5l0.2-0.6l0.1-0.3l0-0.1c0-0.1,0,0,0,0l0-0.2l0.3-1.2    l0.7-2.5c0.9-3.3,1.8-6.7,2.7-10c1.8-6.7,3.6-13.4,5.4-19.9c0.4-1.6,0.9-3.3,1.3-4.9c0.2-0.8,0.4-1.6,0.7-2.4l0.3-1.2    c0.1-0.4,0.2-0.7,0.2-1.1c0.4-2.9-0.7-5.9-2.8-7.8c-0.5-0.5-1.1-0.9-1.7-1.2c-0.3-0.2-0.6-0.3-0.9-0.4c-0.3-0.1-0.7-0.3-1.1-0.4    c-1.5-0.4-3-0.8-4.5-1.2c-3-0.8-6-1.6-8.8-2.4c-5.7-1.6-11.2-3-16.2-4.4s-9.6-2.6-13.7-3.7c-1.8-0.5-3.6-0.4-5.1,0.1    c-1.5,0.5-2.8,1.3-3.8,2.3c-0.9,0.9-1.6,2-1.9,2.9c-0.1,0.2-0.2,0.5-0.3,0.8c0,0.1-0.1,0.2-0.1,0.3c0,0.1-0.1,0.2-0.1,0.4    c-0.1,0.5-0.3,0.9-0.4,1.3c-0.5,1.5-1,2.3-1,2.3c-0.2,0.4-0.7,0.5-1.1,0.3C248.1,185.5,248,185.2,248,185z"></path>
	</g>
	<g>
		<path class="st11" d="M261.8,201.2c0.7-2.4,3.2-3.9,5.6-3.2c2.4,0.7,3.9,3.2,3.2,5.6"></path>
		<path class="st11" d="M282.8,206.8c0.7-2.4,3.2-3.9,5.6-3.2c2.4,0.7,3.9,3.2,3.2,5.6"></path>
		<path class="st11" d="M279.5,217.8c-1,2.9-4.2,4.6-7.2,3.8c-3-0.8-4.9-3.9-4.3-6.9L279.5,217.8z"></path>
		<path class="st12" d="M296,217.5c1.5,5-4.2,8.3-7.7,4.4c-0.3-0.3-0.5-0.6-0.6-1c-1.5-5,4.2-8.3,7.7-4.4    C295.7,216.8,295.9,217.1,296,217.5z"></path>
		<path class="st12" d="M260.6,207.9c1.5,5-4.2,8.3-7.7,4.4c-0.3-0.3-0.5-0.6-0.6-1c-1.5-5,4.2-8.3,7.7-4.4    C260.3,207.2,260.5,207.5,260.6,207.9z"></path>
	</g>
</g>
<path class="st2" d="M374.8,244.6c-7.3,0-13.9-3.4-18.1-8.7c-2.1-2.6-6-2.6-8,0c-4.2,5.3-10.8,8.7-18.1,8.7s-13.9-3.4-18.1-8.7  c-2.1-2.6-6-2.6-8,0c-4.2,5.3-10.8,8.7-18.1,8.7c-7.3,0-13.9-3.4-18.1-8.7c-2.1-2.6-6-2.6-8,0c-4.2,5.3-10.8,8.7-18.1,8.7  c-7.3,0-13.9-3.4-18.1-8.7c-2.1-2.6-6-2.6-8,0c-4.2,5.3-10.8,8.7-18.1,8.7s-13.9-3.4-18.1-8.7c-2.1-2.6-6-2.6-8,0  c-4.2,5.3-10.8,8.7-18.1,8.7c-7.3,0-13.9-3.4-18.1-8.7c-2.1-2.6-6-2.6-8,0c-4.2,5.3-10.8,8.7-18.1,8.7s-13.9-3.4-18.1-8.7  c-2.1-2.6-6-2.6-8,0c-4.2,5.3-10.8,8.7-18.1,8.7s-13.9-3.4-18.1-8.7c-2.1-2.6-6-2.6-8,0c-4.2,5.3-10.8,8.7-18.1,8.7V317h354V244.6z"></path>
<path class="st5" d="M20.7,264.6c7.3,0,13.9-3.4,18.1-8.7c2.1-2.6,6-2.6,8,0c4.2,5.3,10.8,8.7,18.1,8.7s13.9-3.4,18.1-8.7  c2.1-2.6,6-2.6,8,0c4.2,5.3,10.8,8.7,18.1,8.7s13.9-3.4,18.1-8.7c2.1-2.6,6-2.6,8,0c4.2,5.3,10.8,8.7,18.1,8.7  c7.3,0,13.9-3.4,18.1-8.7c2.1-2.6,6-2.6,8,0c4.2,5.3,10.8,8.7,18.1,8.7s13.9-3.4,18.1-8.7c2.1-2.6,6-2.6,8,0  c4.2,5.3,10.8,8.7,18.1,8.7c7.3,0,13.9-3.4,18.1-8.7c2.1-2.6,6-2.6,8,0c4.2,5.3,10.8,8.7,18.1,8.7c7.3,0,13.9-3.4,18.1-8.7  c2.1-2.6,6-2.6,8,0c4.2,5.3,10.8,8.7,18.1,8.7s13.9-3.4,18.1-8.7c2.1-2.6,6-2.6,8,0c4.2,5.3,10.8,8.7,18.1,8.7"></path>
<g>
	<path class="st1" d="M353.4,109.1L261.2,92c-3.9-0.7-6.5-4.5-5.8-8.4l5.5-29.5c0.7-3.9,4.5-6.5,8.4-5.8l92.2,17.1   c3.9,0.7,6.5,4.5,5.8,8.4l-5.5,29.5C361.1,107.3,357.3,109.9,353.4,109.1z"></path>
	<g>
		<g>
			<g>
				<polyline class="st2" points="280.1,72.6 283.6,77.5 293.9,70     "></polyline>
				<path class="st3" d="M280.6,72.2l3.8,4.6l-1.4-0.2l10.5-7.1c0.3-0.2,0.7-0.1,0.9,0.2c0.2,0.3,0.1,0.7-0.1,0.9l-10.1,7.7l0,0      c-0.4,0.3-1,0.2-1.3-0.2l0-0.1l-3.2-5.1c-0.2-0.3-0.1-0.7,0.2-0.9C280.1,71.9,280.4,72,280.6,72.2z"></path>
			</g>
		</g>
		<g>
			<path class="st3" d="M297.9,79.4c0,0,0,0.1-0.1,0.2c0,0.1-0.1,0.3-0.2,0.5c-0.2,0.5-0.5,1.2-1,2c-0.5,0.8-1.2,1.8-2.2,2.8     c-1,1-2.3,1.7-3.9,2.4c-1.6,0.6-3.4,1-5.4,1c-1.9,0-4-0.5-5.9-1.4c-1.9-0.9-3.6-2.4-5-4.2c-0.1-0.1-0.1-0.1-0.2-0.2l-0.1-0.2     l-0.2-0.3c-0.1-0.2-0.3-0.4-0.4-0.7c-0.3-0.5-0.6-1-0.8-1.6c-0.2-0.5-0.4-1-0.6-1.6c-0.2-0.5-0.3-1.1-0.4-1.7     c-0.4-2.2-0.1-4.6,0.6-6.7c0.7-2.1,2-4,3.5-5.4c0.4-0.4,0.8-0.7,1.2-1c0.1-0.1,0.2-0.1,0.3-0.3l0.3-0.2l0.6-0.4     c0.4-0.3,0.9-0.5,1.4-0.7c0.5-0.2,0.9-0.4,1.4-0.5c1.8-0.6,3.7-0.8,5.4-0.6c1.7,0.1,3.2,0.6,4.4,1.1c1.2,0.6,2.2,1.3,2.9,1.9     c0.7,0.7,1.2,1.3,1.4,1.7c0.3,0.4,0.4,0.7,0.4,0.7c0.1,0.1,0,0.3-0.1,0.4c-0.1,0.1-0.2,0-0.3,0l0,0c0,0-0.2-0.2-0.6-0.5     c-0.2-0.1-0.4-0.3-0.7-0.5c-0.3-0.2-0.6-0.4-1-0.7c-0.7-0.5-1.7-1-2.8-1.4c-1.1-0.5-2.4-0.8-3.9-0.9c-1.5-0.1-3.1,0.1-4.6,0.6     c-0.4,0.1-0.8,0.3-1.2,0.5c-0.4,0.2-0.7,0.4-1.1,0.6l-0.6,0.4l-0.3,0.2l-0.2,0.2c-0.3,0.3-0.7,0.5-1,0.9c-1.3,1.3-2.4,2.8-3,4.7     c-0.6,1.8-0.8,3.8-0.5,5.7c0.1,0.5,0.2,1,0.3,1.4c0.1,0.5,0.3,0.9,0.5,1.4c0.2,0.5,0.4,0.8,0.6,1.3c0.1,0.2,0.3,0.4,0.4,0.7     l0.2,0.3l0.1,0.2c0,0,0.1,0.1,0.1,0.1c1.1,1.5,2.6,2.7,4.2,3.6c1.6,0.8,3.4,1.2,5,1.2c1.7,0,3.2-0.3,4.6-0.8     c1.3-0.5,2.5-1.3,3.4-2c1-0.7,1.7-1.5,2.2-2.2c0.5-0.7,0.9-1.3,1.1-1.7c0.1-0.2,0.2-0.4,0.3-0.5c0.1-0.1,0.1-0.2,0.1-0.2     c0.1-0.2,0.4-0.3,0.7-0.2C297.8,78.9,297.9,79.2,297.9,79.4z"></path>
		</g>
		<g>
			<line class="st2" x1="310.3" y1="72.7" x2="334.7" y2="76.7"></line>
			<path class="st3" d="M310.4,72.2c0,0,0.4,0,1.1,0c0.7,0,1.7,0.1,2.8,0.2c1.1,0.1,2.5,0.4,3.9,0.6c1.4,0.2,2.9,0.5,4.5,0.8     c1.5,0.3,3,0.6,4.5,0.8c1.4,0.3,2.8,0.5,3.9,0.7c2.3,0.5,3.8,0.8,3.8,0.8c0.3,0.1,0.5,0.4,0.5,0.7c-0.1,0.3-0.4,0.5-0.7,0.5     c0,0-1.5-0.2-3.8-0.5c-1.2-0.1-2.5-0.3-3.9-0.5c-1.4-0.2-3-0.4-4.5-0.6c-1.5-0.2-3.1-0.5-4.5-0.7c-1.4-0.2-2.8-0.4-3.9-0.7     c-1.1-0.2-2.1-0.5-2.7-0.7c-0.7-0.2-1-0.4-1-0.4c-0.3-0.1-0.4-0.4-0.3-0.7C310.1,72.4,310.2,72.2,310.4,72.2z"></path>
		</g>
		<g>
			<line class="st2" x1="308.9" y1="81.9" x2="340.3" y2="87.1"></line>
			<path class="st3" d="M309,81.3c0,0,2,0,5,0.5c1.5,0.2,3.2,0.5,5,0.8c1.8,0.3,3.8,0.6,5.8,1c2,0.3,3.9,0.7,5.8,1     c1.8,0.3,3.6,0.6,5,0.9c2.9,0.6,4.9,0.9,4.9,0.9c0.4,0.1,0.6,0.5,0.6,0.8c-0.1,0.4-0.4,0.6-0.8,0.6c0,0-2-0.3-4.9-0.7     c-1.5-0.2-3.2-0.5-5.1-0.7c-1.8-0.3-3.8-0.6-5.8-0.9c-2-0.3-3.9-0.6-5.8-0.9c-1.8-0.3-3.6-0.6-5-0.8c-2.9-0.6-4.9-1.1-4.9-1.1     c-0.3-0.1-0.5-0.5-0.4-0.8C308.4,81.5,308.7,81.3,309,81.3z"></path>
		</g>
		<g>
			<line class="st2" x1="339.7" y1="77.5" x2="351" y2="79.4"></line>
			<path class="st3" d="M339.8,76.8c0,0,0.2,0,0.5,0c0.3,0,0.8,0,1.3,0.1c1.1,0.1,2.5,0.4,3.9,0.6c1.4,0.2,2.8,0.5,3.9,0.7     c1,0.2,1.7,0.3,1.7,0.3c0.5,0.1,0.8,0.6,0.7,1c-0.1,0.5-0.5,0.8-1,0.7c0,0-0.7-0.1-1.8-0.2c-1.1-0.1-2.5-0.4-3.9-0.6     c-1.4-0.2-2.8-0.4-3.9-0.7c-0.5-0.1-1-0.2-1.3-0.3c-0.3-0.1-0.5-0.2-0.5-0.2c-0.4-0.2-0.6-0.6-0.4-1     C339.3,77,339.5,76.8,339.8,76.8z"></path>
		</g>
	</g>
</g>
<g>
	<path class="st2" d="M228.9,116.1c1.2,0,2.2,1.2,2.2,2.8l0.7,37.5c0,1.6-0.9,2.9-2.1,2.9l-53.5,1.1c-1.2,0-2.2-1.2-2.2-2.8   l-0.7-37.5c0-1.6,0.9-2.9,2.1-2.9L228.9,116.1z"></path>
	<polygon class="st4" points="179.2,159.8 179,159.9 178.6,159.8  "></polygon>
	<polygon class="st4" points="231.6,157 230.1,159.2 179.2,159.8 184.1,154.3 192.6,145.5 201.5,153.2 219.7,134.1 231.6,146.3    231.5,149.3  "></polygon>
	<path class="st11" d="M228.9,116.1c1.2,0,2.2,1.2,2.2,2.8l0.7,37.5c0,1.6-0.9,2.9-2.1,2.9l-53.5,1.1c-1.2,0-2.2-1.2-2.2-2.8   l-0.7-37.5c0-1.6,0.9-2.9,2.1-2.9L228.9,116.1z"></path>
	<g>
		<path class="st13" d="M177.7,157.1c0.4-0.7,0.9-1.3,1.4-2c0.5-0.6,1-1.3,1.5-1.9c1-1.2,2.1-2.4,3.1-3.6c1-1.2,2.1-2.4,3.2-3.6    c1.1-1.2,2.1-2.4,3.2-3.5l0,0c0.4-0.4,1.1-0.4,1.5,0l0,0l8.2,8.4c0.4,0.4,0.4,1.1,0,1.5s-1.1,0.4-1.5,0l-8.2-8.4l1.6,0    c-1,1.2-2.1,2.4-3.2,3.6c-1.1,1.2-2.1,2.4-3.2,3.5c-1.1,1.2-2.2,2.3-3.3,3.5c-0.6,0.6-1.1,1.1-1.7,1.7c-0.6,0.5-1.2,1.1-1.8,1.6    c-0.2,0.2-0.6,0.2-0.7-0.1C177.6,157.6,177.6,157.3,177.7,157.1z"></path>
	</g>
	<g>
		<path class="st13" d="M196.5,154.4c0.5-1.2,1.3-2.2,2.1-3.2l2.5-2.8l5-5.7l5.1-5.6l2.6-2.8c0.9-0.9,1.7-1.9,2.6-2.8l0,0    c0.4-0.4,1.1-0.4,1.5,0l0,0l14.2,14.5c0.4,0.4,0.4,1.1,0,1.5c-0.4,0.4-1.1,0.4-1.5,0l-14.2-14.5l1.6,0c-0.8,1-1.7,1.9-2.5,2.9    l-2.5,2.8l-5.1,5.6l-5.2,5.6l-2.6,2.8c-0.9,0.9-1.8,1.8-3,2.4c-0.2,0.1-0.5,0-0.6-0.2C196.4,154.7,196.4,154.5,196.5,154.4z"></path>
	</g>
	<path class="st11" d="M196.8,128.1c0.1,3.2-2.3,5.8-5.3,5.8c-3,0.1-5.4-2.5-5.5-5.6s2.3-5.8,5.3-5.8   C194.3,122.4,196.8,124.9,196.8,128.1z"></path>
</g>
<line class="st11" x1="197.8" y1="244.6" x2="197.8" y2="203.5"></line>
<polyline class="st11" points="184.2,215.2 197.8,201.7 211.3,215.2 "></polyline>
<path class="st5" d="M20.7,244.6c7.3,0,13.9-3.4,18.1-8.7c2.1-2.6,6-2.6,8,0c4.2,5.3,10.8,8.7,18.1,8.7s13.9-3.4,18.1-8.7  c2.1-2.6,6-2.6,8,0c4.2,5.3,10.8,8.7,18.1,8.7s13.9-3.4,18.1-8.7c2.1-2.6,6-2.6,8,0c4.2,5.3,10.8,8.7,18.1,8.7  c7.3,0,13.9-3.4,18.1-8.7c2.1-2.6,6-2.6,8,0c4.2,5.3,10.8,8.7,18.1,8.7s13.9-3.4,18.1-8.7c2.1-2.6,6-2.6,8,0  c4.2,5.3,10.8,8.7,18.1,8.7c7.3,0,13.9-3.4,18.1-8.7c2.1-2.6,6-2.6,8,0c4.2,5.3,10.8,8.7,18.1,8.7c7.3,0,13.9-3.4,18.1-8.7  c2.1-2.6,6-2.6,8,0c4.2,5.3,10.8,8.7,18.1,8.7s13.9-3.4,18.1-8.7c2.1-2.6,6-2.6,8,0c4.2,5.3,10.8,8.7,18.1,8.7"></path>
</svg>